<?xml version="1.0" standalone="no"?>
<!DOCTYPE svg PUBLIC "-//W3C//DTD SVG 20010904//EN"
 "http://www.w3.org/TR/2001/REC-SVG-20010904/DTD/svg10.dtd">
<svg version="1.0" xmlns="http://www.w3.org/2000/svg"
 width="512.000000pt" height="512.000000pt" viewBox="0 0 512.000000 512.000000"
 preserveAspectRatio="xMidYMid meet">
<metadata>
Created by potrace 1.14, written by Peter Selinger 2001-2017
</metadata>
<g transform="translate(0.000000,512.000000) scale(0.100000,-0.100000)"
fill="#000000" stroke="none">
<path d="M2398 5095 c-2 -1 -39 -5 -83 -9 -75 -6 -102 -9 -165 -21 -14 -3 -43
-8 -65 -11 -59 -9 -256 -60 -344 -90 -82 -28 -313 -123 -321 -133 -3 -3 -23
-15 -45 -26 -51 -25 -158 -87 -165 -94 -3 -3 -21 -15 -40 -25 -19 -11 -37 -22
-40 -26 -3 -3 -27 -22 -55 -40 -27 -19 -55 -39 -61 -45 -6 -5 -27 -23 -47 -38
-118 -93 -276 -250 -367 -365 -33 -42 -69 -87 -79 -98 -55 -66 -195 -302 -255
-429 -50 -105 -128 -313 -141 -375 -2 -8 -12 -49 -23 -90 -84 -318 -100 -722
-41 -1045 6 -33 12 -69 13 -80 2 -11 6 -29 9 -40 3 -11 8 -31 11 -45 3 -14 10
-43 16 -65 6 -22 13 -49 15 -60 12 -55 93 -267 141 -370 62 -135 204 -368 286
-469 128 -161 278 -315 403 -414 39 -31 72 -59 75 -62 5 -7 76 -55 111 -76 11
-6 28 -19 39 -29 11 -10 20 -14 20 -9 0 5 4 4 8 -2 6 -10 197 -124 206 -124 3
0 37 -15 78 -34 109 -51 298 -123 351 -134 4 -1 8 -2 10 -3 1 0 9 -2 17 -4 8
-1 44 -11 80 -20 36 -10 74 -19 86 -20 11 -2 45 -8 75 -14 129 -27 227 -35
419 -35 206 0 296 7 445 34 161 29 379 89 470 129 91 40 144 61 150 61 5 0 16
7 26 16 9 8 23 16 31 18 36 5 345 194 418 255 14 11 30 24 35 28 112 85 285
256 401 398 46 57 194 270 194 280 0 4 8 19 18 33 30 44 92 162 84 162 -4 0
-2 4 4 8 36 25 180 439 208 602 2 14 9 52 14 85 27 154 34 244 34 425 0 80 -3
174 -6 210 -4 36 -7 72 -7 80 -2 33 -41 250 -60 325 -23 93 -74 256 -95 302
-8 17 -14 34 -14 38 0 11 -109 241 -133 280 -64 104 -77 126 -77 131 0 2 -5
10 -10 17 -6 7 -42 57 -81 112 -201 282 -477 531 -781 705 -77 45 -286 146
-333 161 -22 7 -44 16 -50 20 -44 29 -398 118 -540 135 -27 3 -61 8 -75 10
-29 5 -397 13 -402 9z"/>
</g>
</svg>
